<svg width="312" height="302" viewBox="0 0 312 302" fill="none" xmlns="http://www.w3.org/2000/svg">
<mask id="mask0_157_16173" style="mask-type:luminance" maskUnits="userSpaceOnUse" x="0" y="0" width="312" height="302">
<path d="M0 0H312V302H0V0Z" fill="white"/>
</mask>
<g mask="url(#mask0_157_16173)">
<g opacity="0.168728">
<path d="M33.6997 213.195L30.1146 206.489L37.0419 203.019L40.627 209.724L33.6997 213.195Z" fill="#1EB0E6"/>
</g>
<g opacity="0.168728">
<path d="M157.13 62.823L162.129 57.0271L168.117 61.8654L163.118 67.6614L157.13 62.823Z" fill="#1EB0E6"/>
</g>
<g opacity="0.168728">
<path d="M154.681 257.492L159.68 251.696L165.667 256.534L160.669 262.33L154.681 257.492Z" fill="#1EB0E6"/>
</g>
<g opacity="0.168728">
<path d="M96.4145 202.766L101.413 196.97L107.401 201.808L102.402 207.604L96.4145 202.766Z" fill="#0675BB"/>
</g>
<g opacity="0.168728">
<path d="M202.598 126.438L207.597 120.642L213.584 125.481L208.586 131.276L202.598 126.438Z" fill="#0675BB"/>
</g>
<g opacity="0.168728">
<path d="M79.7924 132.515L76.2074 125.81L83.1347 122.339L86.7197 129.045L79.7924 132.515Z" fill="#0675BB"/>
</g>
<g opacity="0.168728">
<path d="M102.864 283.896L95.6941 270.485L109.549 263.545L116.719 276.956L102.864 283.896Z" fill="#27AE60"/>
</g>
<g opacity="0.168728">
<path d="M88.2967 27.8209L98.2938 16.229L110.27 25.9057L100.272 37.4976L88.2967 27.8209Z" fill="#27AE60"/>
</g>
<g opacity="0.168728">
<path d="M247.375 205.466L257.372 193.874L269.348 203.551L259.351 215.142L247.375 205.466Z" fill="#27AE60"/>
</g>
<g opacity="0.168728">
<path d="M43.4096 63.7598L33.0507 63.6618L27.0947 71.8662L23.9899 62.2997L14.0882 59.3521L22.5282 53.5377L22.3647 43.5115L30.6857 49.4845L40.4863 46.2357L37.189 55.7416L43.4096 63.7598Z" fill="#F7CE15"/>
</g>
<g opacity="0.168728">
<path d="M214.627 288.716L218.353 279.36L212.503 271.084L222.847 271.623L229.17 263.68L231.837 273.37L241.595 276.736L232.899 282.186L232.607 292.209L224.565 285.888L214.627 288.716Z" fill="#F7CE15"/>
</g>
<g opacity="0.168728">
<path d="M267.066 104.206L259.165 97.7211L249.166 100.345L253.097 91.0672L247.429 82.6737L257.759 83.4248L264.255 75.6134L266.709 85.3553L276.391 88.9211L267.578 94.1909L267.066 104.206Z" fill="#F7CE15"/>
</g>
</g>
<mask id="mask1_157_16173" style="mask-type:luminance" maskUnits="userSpaceOnUse" x="0" y="0" width="312" height="302">
<path d="M312 0V302H0V0H312Z" fill="white"/>
</mask>
<g mask="url(#mask1_157_16173)">
<g opacity="0.297929">
<path d="M97.754 30.0225L105.529 30.6228L104.909 38.1489L97.1338 37.5486L97.754 30.0225Z" fill="#1EB0E6"/>
</g>
<g opacity="0.297929">
<path d="M243.005 156.776L250.762 157.567L249.946 165.075L242.188 164.285L243.005 156.776Z" fill="#1EB0E6"/>
</g>
<g opacity="0.297929">
<path d="M44.2012 154.135L51.9584 154.925L51.1419 162.434L43.3848 161.644L44.2012 154.135Z" fill="#1EB0E6"/>
</g>
<g opacity="0.297929">
<path d="M97.9248 96.5947L105.682 97.385L104.866 104.894L97.1084 104.103L97.9248 96.5947Z" fill="#0675BB"/>
</g>
<g opacity="0.297929">
<path d="M176.786 199.492L184.543 200.282L183.727 207.791L175.97 207.001L176.786 199.492Z" fill="#0675BB"/>
</g>
<g opacity="0.297929">
<path d="M178.979 76.4989L186.754 77.0992L186.134 84.6253L178.358 84.025L178.979 76.4989Z" fill="#0675BB"/>
</g>
<g opacity="0.297929">
<path d="M24.8419 90.6033L40.3925 91.8039L39.1522 106.856L23.6016 105.656L24.8419 90.6033Z" fill="#27AE60"/>
</g>
<g opacity="0.297929">
<path d="M277.971 92.7561L293.485 94.3367L291.852 109.354L276.338 107.773L277.971 92.7561Z" fill="#27AE60"/>
</g>
<g opacity="0.297929">
<path d="M97.7081 242.988L113.222 244.568L111.59 259.586L96.0752 258.005L97.7081 242.988Z" fill="#27AE60"/>
</g>
<g opacity="0.297929">
<path d="M239.908 39.2432L246.285 31.3411L243.176 21.7761L252.911 25.205L261.348 19.3866L260.987 29.4079L269.311 35.3768L259.353 38.1414L256.061 47.6489L250.267 39.3362L239.908 39.2432Z" fill="#F7CE15"/>
</g>
<g opacity="0.297929">
<path d="M12.9886 216.254L23.0438 213.842L26.6916 204.457L32.1687 212.968L42.5173 213.426L35.8471 221.098L38.5951 230.766L28.9956 226.997L20.3453 232.514L21.0827 222.512L12.9886 216.254Z" fill="#F7CE15"/>
</g>
<g opacity="0.297929">
<path d="M211.379 260.771L214.268 251.141L207.71 243.378L218.064 243.062L223.665 234.627L227.176 244.061L237.195 246.61L229.01 252.757L229.601 262.768L221.032 257.133L211.379 260.771Z" fill="#F7CE15"/>
</g>
</g>
<path d="M213.541 151C213.541 181.76 187.779 206.697 156 206.697C124.221 206.697 98.459 181.76 98.459 151C98.459 120.24 124.221 95.3032 156 95.3032C187.779 95.3032 213.541 120.24 213.541 151Z" fill="#D2B589"/>
<path d="M202.033 167.941C202.033 187.039 186.039 202.52 166.309 202.52C146.58 202.52 130.586 187.039 130.586 167.941C130.586 148.844 146.58 133.363 166.309 133.363C186.039 133.363 202.033 148.844 202.033 167.941Z" fill="#D2B589"/>
<path d="M102.819 166.27C102.71 161.952 103.276 157.722 103.927 153.452C104.968 146.62 107.495 139.751 111.301 133.9C125.811 111.597 156.059 103.745 181.842 106.778C185.614 107.221 189.358 107.735 193.072 108.41C183.058 100.234 170.126 95.3037 156 95.3037C124.221 95.3037 98.459 120.24 98.459 151C98.459 159.146 100.27 166.88 103.516 173.854C103.17 171.336 102.883 168.813 102.819 166.27Z" fill="#D2B589"/>
<path d="M197.029 119.355C193.244 116.646 187.289 117.244 183.959 120.467L143.816 159.323C142.78 160.326 141.1 160.326 140.063 159.323L127.881 147.531C124.014 143.788 117.687 143.788 113.821 147.531C109.954 151.273 109.954 157.397 113.821 161.139L134.91 181.553C138.776 185.295 145.103 185.295 148.969 181.553L198.178 133.922C202.395 129.839 202.013 122.923 197.029 119.355Z" fill="white"/>
<path d="M198.289 121.464C198.459 121.304 198.627 121.143 198.79 120.973C198.284 120.384 197.702 119.837 197.029 119.355C193.243 116.645 187.289 117.244 183.96 120.466L174.176 129.936C181.18 125.344 189.742 120.628 198.289 121.464Z" fill="white"/>
<path d="M130.472 150.039L127.881 147.531C124.328 144.092 118.709 143.831 114.819 146.712C120.144 146.875 125.59 147.921 130.472 150.039Z" fill="white"/>
<path d="M158.058 170.135C151 173.223 143.273 175.904 135.443 174.489C130.096 173.523 125.487 170.581 120.825 167.919L134.911 181.552C138.777 185.295 145.103 185.295 148.97 181.552L163.647 167.346C161.835 168.355 159.978 169.295 158.058 170.135Z" fill="white"/>
</svg>
