<svg width="270" height="181" viewBox="0 0 270 181" fill="none" xmlns="http://www.w3.org/2000/svg">
<path d="M198.406 175.042C198.406 177.781 196.154 180 193.377 180C190.598 180 188.347 177.781 188.347 175.042C188.347 172.303 190.598 170.085 193.377 170.085C196.154 170.085 198.406 172.303 198.406 175.042Z" stroke="#0EE171" stroke-miterlimit="10"/>
<path d="M24.1291 38.9426C24.1291 41.6817 21.8763 43.9016 19.0985 43.9016C16.3206 43.9016 14.0693 41.6817 14.0693 38.9426C14.0693 36.2042 16.3206 33.985 19.0985 33.985C21.8763 33.985 24.1291 36.2042 24.1291 38.9426Z" stroke="#0EE171" stroke-miterlimit="10"/>
<path d="M61.8517 172.811C61.8517 175.55 59.599 177.77 56.8211 177.77C54.0432 177.77 51.792 175.55 51.792 172.811C51.792 170.072 54.0432 167.853 56.8211 167.853C59.599 167.853 61.8517 170.072 61.8517 172.811Z" stroke="#93F145" stroke-miterlimit="10"/>
<path d="M21.2576 143.991L18.531 146.68C17.4039 147.791 15.5751 147.791 14.4472 146.68L11.7214 143.991C10.5935 142.879 10.5935 141.078 11.7214 139.966L14.4472 137.278C15.5751 136.167 17.4039 136.167 18.531 137.278L21.2576 139.966C22.3855 141.078 22.3855 142.879 21.2576 143.991Z" fill="#F1EC48"/>
<path d="M16.8558 134.338H16.124V128.623H16.8558V134.338Z" fill="#F1EC48"/>
<path d="M16.8558 155.333H16.124V149.619H16.8558V155.333Z" fill="#F1EC48"/>
<path d="M30.0374 142.339H24.2402V141.616H30.0374V142.339Z" fill="#F1EC48"/>
<path d="M8.73952 142.339H2.94238V141.616H8.73952V142.339Z" fill="#F1EC48"/>
<path d="M246.837 56.977L244.111 59.6647C242.984 60.7766 241.155 60.7766 240.028 59.6647L237.301 56.977C236.173 55.8651 236.173 54.0639 237.301 52.952L240.028 50.2642C241.155 49.1531 242.984 49.1531 244.111 50.2642L246.837 52.952C247.965 54.0639 247.965 55.8651 246.837 56.977Z" fill="#F1EC48"/>
<path d="M242.435 47.3234H241.703V41.6088H242.435V47.3234Z" fill="#F1EC48"/>
<path d="M242.435 68.3192H241.703V62.6045H242.435V68.3192Z" fill="#F1EC48"/>
<path d="M255.617 55.3249H249.82V54.6035H255.617V55.3249Z" fill="#F1EC48"/>
<path d="M234.318 55.3249H228.521V54.6035H234.318V55.3249Z" fill="#F1EC48"/>
<g opacity="0.06375">
<path d="M265.408 85.519L260.962 81.1363L262.206 79.9099L266.652 84.2919L265.408 85.519Z" fill="#89C6EC"/>
<path d="M265.408 79.9099L260.962 84.2926L262.206 85.519L266.652 81.137L265.408 79.9099Z" fill="#89C6EC"/>
</g>
<path d="M216.34 89.984C216.552 138.575 176.765 178.136 127.472 178.346C78.1793 178.555 38.0482 139.334 37.8356 90.7429C37.623 42.1516 77.4094 2.58914 126.702 2.37957C175.995 2.16999 216.127 41.3926 216.34 89.984Z" stroke="#D2B589" stroke-width="3" stroke-miterlimit="10" stroke-dasharray="5.99 5.99"/>
<path d="M154.133 126.369H95.1729V55.3444H144.702L154.133 64.6965V126.369Z" fill="#D2B589"/>
<path d="M154.133 126.369H95.1729V55.3444H144.702L154.133 64.6965V126.369Z" stroke="#D2B589" stroke-width="3" stroke-miterlimit="10"/>
<path d="M168.468 116.384H106.729V42.0133H150.612L150.361 59.8624H168.468V116.384Z" fill="white"/>
<path d="M168.468 116.384H106.729V42.0133H150.612L150.361 59.8624H168.468V116.384Z" stroke="#D2B589" stroke-width="3" stroke-miterlimit="10"/>
<path d="M150.908 41.7947L168.785 59.5143" stroke="#D2B589" stroke-width="3" stroke-miterlimit="10"/>
<path d="M157.403 76.5958H116.411V73.3726H157.403V76.5958Z" fill="#D2B589"/>
<path d="M157.403 86.5118H116.411V83.2886H157.403V86.5118Z" fill="#D2B589"/>
<path d="M157.403 96.4284H116.411V93.2052H157.403V96.4284Z" fill="#D2B589"/>
<path d="M130.494 63.3325H116.411V49.4504H130.494V63.3325Z" fill="#D2B589"/>
<path d="M73.4201 93.8095C73.4201 102.597 66.194 109.721 57.2795 109.721H18.1338C9.22605 109.721 2 102.597 2 93.8095C2 85.0226 9.22605 77.9053 18.1338 77.9053C18.1941 77.9053 18.2537 77.9045 18.3141 77.9112C20.9086 70.8229 27.7989 65.7545 35.8843 65.7545C44.1251 65.7545 51.1233 71.0185 53.6039 78.3255C54.7869 78.0473 56.0189 77.9053 57.2795 77.9053C66.194 77.9053 73.4201 85.0226 73.4201 93.8095Z" fill="#D2B589"/>
<path d="M73.4201 93.8095C73.4201 102.597 66.194 109.721 57.2795 109.721H18.1338C9.22605 109.721 2 102.597 2 93.8095C2 85.0226 9.22605 77.9053 18.1338 77.9053C18.1941 77.9053 18.2537 77.9045 18.3141 77.9112C20.9086 70.8229 27.7989 65.7545 35.8843 65.7545C44.1251 65.7545 51.1233 71.0185 53.6039 78.3255C54.7869 78.0473 56.0189 77.9053 57.2795 77.9053C66.194 77.9053 73.4201 85.0226 73.4201 93.8095Z" stroke="#D2B589" stroke-width="3" stroke-miterlimit="10"/>
<path d="M268 128.935C268 139.686 259.16 148.402 248.254 148.402H200.361C189.463 148.402 180.622 139.686 180.622 128.935C180.622 118.185 189.463 109.478 200.361 109.478C200.434 109.478 200.508 109.478 200.582 109.485C203.756 100.814 212.186 94.6124 222.077 94.6124C232.16 94.6124 240.721 101.052 243.755 109.992C245.203 109.651 246.711 109.478 248.254 109.478C259.16 109.478 268 118.185 268 128.935Z" fill="#D2B589"/>
<path d="M268 128.935C268 139.686 259.16 148.402 248.254 148.402H200.361C189.463 148.402 180.622 139.686 180.622 128.935C180.622 118.185 189.463 109.478 200.361 109.478C200.434 109.478 200.508 109.478 200.582 109.485C203.756 100.814 212.186 94.6124 222.077 94.6124C232.16 94.6124 240.721 101.052 243.755 109.992C245.203 109.651 246.711 109.478 248.254 109.478C259.16 109.478 268 118.185 268 128.935Z" stroke="#D2B589" stroke-width="3" stroke-miterlimit="10"/>
<g opacity="0.943333">
<path d="M222.79 127.159C223.319 127.159 223.749 126.736 223.749 126.214V112.6C223.749 112.078 223.319 111.655 222.79 111.655C222.26 111.655 221.831 112.078 221.831 112.6V126.214C221.831 126.736 222.26 127.159 222.79 127.159Z" fill="white"/>
<path d="M230.823 113.794C231.197 113.425 231.197 112.827 230.823 112.458L223.468 105.207C223.094 104.838 222.487 104.838 222.113 105.207C221.738 105.576 221.738 106.176 222.113 106.545L229.466 113.794C229.84 114.163 230.449 114.163 230.823 113.794Z" fill="white"/>
<path d="M223.468 105.207C223.094 104.838 222.485 104.838 222.111 105.207L214.758 112.457C214.383 112.826 214.383 113.425 214.758 113.794C215.132 114.163 215.739 114.163 216.113 113.794L223.468 106.545C223.842 106.176 223.842 105.576 223.468 105.207Z" fill="white"/>
<path d="M223.834 129.198C223.834 129.758 223.374 130.211 222.806 130.211C222.238 130.211 221.777 129.758 221.777 129.198C221.777 128.639 222.238 128.185 222.806 128.185C223.374 128.185 223.834 128.639 223.834 129.198Z" fill="white"/>
<path d="M223.533 132.25C223.533 132.646 223.207 132.967 222.805 132.967C222.404 132.967 222.079 132.646 222.079 132.25C222.079 131.854 222.404 131.533 222.805 131.533C223.207 131.533 223.533 131.854 223.533 132.25Z" fill="white"/>
<path d="M223.237 134.555C223.237 134.789 223.044 134.98 222.806 134.98C222.567 134.98 222.374 134.789 222.374 134.555C222.374 134.321 222.567 134.129 222.806 134.129C223.044 134.129 223.237 134.321 223.237 134.555Z" fill="white"/>
</g>
<g opacity="0.943333">
<path d="M36.0899 91.0199C36.4583 91.0199 36.7579 90.7251 36.7579 90.3614V80.8772C36.7579 80.5141 36.4583 80.2188 36.0899 80.2188C35.7209 80.2188 35.4219 80.5141 35.4219 80.8772V90.3614C35.4219 90.7251 35.7209 91.0199 36.0899 91.0199Z" fill="white"/>
<path d="M41.6856 81.7093C41.9462 81.4523 41.9462 81.0352 41.6856 80.7783L36.5623 75.7274C36.3016 75.4704 35.8786 75.4704 35.6179 75.7274C35.3572 75.9844 35.3572 76.402 35.6179 76.6589L40.7406 81.7093C41.0013 81.9663 41.4249 81.9663 41.6856 81.7093Z" fill="white"/>
<path d="M36.5625 75.7274C36.3018 75.4704 35.8782 75.4704 35.6175 75.7274L30.4948 80.7778C30.2341 81.0347 30.2341 81.4523 30.4948 81.7093C30.7555 81.9663 31.1786 81.9663 31.4393 81.7093L36.5625 76.6589C36.8232 76.402 36.8232 75.9844 36.5625 75.7274Z" fill="white"/>
<path d="M36.8175 92.4399C36.8175 92.83 36.4969 93.1455 36.1011 93.1455C35.7059 93.1455 35.3848 92.83 35.3848 92.4399C35.3848 92.0503 35.7059 91.7343 36.1011 91.7343C36.4969 91.7343 36.8175 92.0503 36.8175 92.4399Z" fill="white"/>
<path d="M36.608 94.5661C36.608 94.8417 36.3805 95.0655 36.1008 95.0655C35.8212 95.0655 35.5947 94.8417 35.5947 94.5661C35.5947 94.2905 35.8212 94.0667 36.1008 94.0667C36.3805 94.0667 36.608 94.2905 36.608 94.5661Z" fill="white"/>
<path d="M36.4015 96.1717C36.4015 96.3349 36.267 96.4681 36.1009 96.4681C35.9348 96.4681 35.8003 96.3349 35.8003 96.1717C35.8003 96.0085 35.9348 95.8754 36.1009 95.8754C36.267 95.8754 36.4015 96.0085 36.4015 96.1717Z" fill="white"/>
</g>
</svg>
