<svg width="230" height="211" viewBox="0 0 230 211" fill="none" xmlns="http://www.w3.org/2000/svg">
<path d="M28.9601 117.474C28.4898 117.488 28.0156 117.484 27.5513 117.464L27.5738 116.767C28.3526 116.8 29.1514 116.786 29.9441 116.723L29.9844 117.42C29.6438 117.447 29.299 117.465 28.9601 117.474ZM25.1274 117.199C24.3212 117.056 23.52 116.857 22.7452 116.607L22.9061 115.934C23.6577 116.177 24.4359 116.37 25.2183 116.509L25.1274 117.199ZM20.4405 115.683C19.6943 115.323 18.9577 114.904 18.2508 114.438L18.5479 113.831C19.2334 114.283 19.9478 114.689 20.6715 115.038L20.4405 115.683ZM16.208 112.896C15.5628 112.343 14.9317 111.736 14.3324 111.09L14.7414 110.578C15.3245 111.206 15.9381 111.797 16.5643 112.334L16.208 112.896ZM12.6384 109.059C12.1136 108.36 11.6066 107.614 11.132 106.841L11.6217 106.436C12.0848 107.19 12.5792 107.918 13.0915 108.6L12.6384 109.059ZM9.81246 104.47C9.40918 103.669 9.02675 102.83 8.67617 101.976L9.21918 101.675C9.56247 102.511 9.93674 103.333 10.3313 104.118L9.81246 104.47ZM7.71883 99.3848C7.43263 98.5183 7.16893 97.6205 6.93518 96.7173L7.51063 96.5157C7.74043 97.403 7.99958 98.2841 8.28064 99.1347L7.71883 99.3848ZM6.31989 93.9917C6.1438 93.0855 5.99154 92.1542 5.86788 91.2245L6.46183 91.1177C6.58336 92.0314 6.73319 92.9471 6.90626 93.8387L6.31989 93.9917ZM5.57763 88.429C5.5103 87.5337 5.46632 86.6192 5.44717 85.7131L5.4452 85.6182L6.04614 85.6013L6.04811 85.6963C6.06695 86.5877 6.11001 87.4868 6.17614 88.3678L5.57763 88.429ZM6.07094 82.834L5.47025 82.8044C5.50494 81.8706 5.56618 80.927 5.6524 79.9991L6.24954 80.0742C6.16481 80.9871 6.10475 81.9153 6.07094 82.834ZM6.58365 77.3328L5.99158 77.2125C6.13048 76.2877 6.29761 75.361 6.48806 74.4574L7.07177 74.624C6.8846 75.5121 6.72077 76.4237 6.58365 77.3328ZM7.71654 71.9598L7.14391 71.7474C7.38953 70.851 7.66381 69.9594 7.95913 69.0966L8.51767 69.3543C8.22775 70.202 7.95797 71.0789 7.71654 71.9598ZM9.47578 66.8231L8.93431 66.5191C9.28651 65.6735 9.66806 64.8368 10.0689 64.0318L10.5894 64.3814C10.1957 65.1716 9.82108 65.9927 9.47578 66.8231ZM11.8567 62.0451L11.3602 61.6501C11.8173 60.8748 12.3042 60.1138 12.8071 59.388L13.2756 59.826C12.782 60.5376 12.3048 61.2844 11.8567 62.0451ZM14.8386 57.744L14.402 57.2642C14.9557 56.5827 15.5393 55.9195 16.136 55.2933L16.5391 55.8118C15.9539 56.4258 15.3821 57.076 14.8386 57.744ZM18.3648 54.0413L17.9979 53.4883C18.6346 52.9193 19.2999 52.3708 19.9762 51.8584L20.3049 52.4428C19.642 52.9455 18.989 53.4831 18.3648 54.0413ZM22.345 51.0222L22.0554 50.4097C22.7553 49.9629 23.4839 49.5377 24.2211 49.1461L24.4709 49.7814C23.7474 50.1659 23.0325 50.5834 22.345 51.0222ZM26.67 48.7201L26.4589 48.0671C27.2049 47.7419 27.977 47.4391 28.7533 47.1673L28.9272 47.8361C28.1634 48.1034 27.4038 48.4006 26.67 48.7201ZM31.2294 47.1215L31.0923 46.4419C31.8641 46.232 32.662 46.0434 33.4638 45.8819L33.5662 46.5701C32.7761 46.7292 31.9902 46.9144 31.2294 47.1215ZM35.927 46.1735L35.8567 45.4801C36.6451 45.3728 37.4554 45.2868 38.2646 45.225L38.3041 45.9217C37.5047 45.9829 36.705 46.0675 35.927 46.1735ZM43.0827 45.8148C42.2816 45.7912 41.477 45.7883 40.6915 45.8054L40.6806 45.1073C41.4745 45.0899 42.2875 45.0936 43.0973 45.117L43.0827 45.8148Z" fill="#AFDEFD"/>
<g opacity="0.164027">
<path d="M36.2043 199.556C36.2043 201.193 28.0998 202.521 18.1021 202.521C8.10478 202.521 0 201.193 0 199.556C0 197.919 8.10478 196.592 18.1021 196.592C28.0998 196.592 36.2043 197.919 36.2043 199.556Z" fill="#353535"/>
<path d="M80.4917 189.543C80.4917 191.449 76.5016 192.995 71.5794 192.995C66.6572 192.995 62.667 191.449 62.667 189.543C62.667 187.637 66.6572 186.092 71.5794 186.092C76.5016 186.092 80.4917 187.637 80.4917 189.543Z" fill="#353535"/>
<path d="M209.841 207.509C209.841 209.437 201.027 211 190.155 211C179.282 211 170.468 209.437 170.468 207.509C170.468 205.581 179.282 204.017 190.155 204.017C201.027 204.017 209.841 205.581 209.841 207.509Z" fill="#353535"/>
<path d="M196.229 170.285C196.229 173.175 163.598 175.519 123.345 175.519C83.0916 175.519 50.46 173.175 50.46 170.285C50.46 167.396 83.0916 165.052 123.345 165.052C163.598 165.052 196.229 167.396 196.229 170.285Z" fill="#353535"/>
<path d="M225.909 188.134C225.909 190.062 205.831 191.625 181.063 191.625C156.295 191.625 136.217 190.062 136.217 188.134C136.217 186.205 156.295 184.642 181.063 184.642C205.831 184.642 225.909 186.205 225.909 188.134Z" fill="#353535"/>
</g>
<path d="M203.31 140.352H41.702C38.3821 140.352 35.6909 137.225 35.6909 133.369V6.98266C35.6909 3.12614 38.3821 0 41.702 0H203.31C206.63 0 209.321 3.12614 209.321 6.98266V133.369C209.321 137.225 206.63 140.352 203.31 140.352Z" fill="#353535"/>
<path d="M149.774 161.494H95.2378C95.2378 161.494 105.963 149.274 104.447 140.351H140.565C139.205 154.937 149.774 161.494 149.774 161.494Z" fill="#4B4B4B"/>
<path d="M149.775 169.392H95.2379C94.5739 169.392 94.0356 168.767 94.0356 167.995V162.89C94.0356 162.119 94.5739 161.494 95.2379 161.494H149.775C150.438 161.494 150.977 162.119 150.977 162.89V167.995C150.977 168.767 150.438 169.392 149.775 169.392Z" fill="#353535"/>
<path d="M201.552 130.227H43.46C43.1282 130.227 42.8589 129.914 42.8589 129.528V10.8231C42.8589 10.4377 43.1282 10.1249 43.46 10.1249H201.552C201.884 10.1249 202.153 10.4377 202.153 10.8231V129.528C202.153 129.914 201.884 130.227 201.552 130.227Z" fill="#C6DFFD"/>
<path d="M140.566 140.351H104.447C104.453 140.39 104.458 140.43 104.464 140.469L141.207 149.005C140.56 146.516 140.259 143.639 140.566 140.351Z" fill="#353535"/>
<path d="M79.4217 98.281H47.8634C46.8674 98.281 46.0601 97.3429 46.0601 96.1862V75.9365C46.0601 74.7794 46.8674 73.8417 47.8634 73.8417H79.4217C80.4174 73.8417 81.225 74.7794 81.225 75.9365V96.1862C81.225 97.3429 80.4174 98.281 79.4217 98.281Z" fill="white"/>
<path d="M118.644 68.2555H48.3141C47.3183 68.2555 46.5107 67.3177 46.5107 66.1607V16.5838C46.5107 15.4271 47.3183 14.489 48.3141 14.489H118.644C119.64 14.489 120.447 15.4271 120.447 16.5838V66.1607C120.447 67.3177 119.64 68.2555 118.644 68.2555Z" fill="white"/>
<path d="M120.297 128.28H88.7389C87.7431 128.28 86.9355 127.342 86.9355 126.185V76.6347C86.9355 75.4777 87.7431 74.5399 88.7389 74.5399H120.297C121.293 74.5399 122.101 75.4777 122.101 76.6347V126.185C122.101 127.342 121.293 128.28 120.297 128.28Z" fill="white"/>
<path d="M58.3896 84.5297C58.3896 87.6849 56.1876 90.2428 53.4714 90.2428C50.7553 90.2428 48.5532 87.6849 48.5532 84.5297C48.5532 81.3746 50.7553 78.8167 53.4714 78.8167C56.1876 78.8167 58.3896 81.3746 58.3896 84.5297Z" fill="#4094D0"/>
<path d="M77.71 83.5305H62.3269C61.7613 83.5305 61.3032 82.9981 61.3032 82.3407C61.3032 81.6837 61.7613 81.1516 62.3269 81.1516H77.71C78.2755 81.1516 78.7339 81.6837 78.7339 82.3407C78.7339 82.9981 78.2755 83.5305 77.71 83.5305Z" fill="#DFE6F4"/>
<path d="M69.8782 88.992H62.3272C61.7616 88.992 61.3032 88.4595 61.3032 87.8025C61.3032 87.1455 61.7616 86.613 62.3272 86.613H69.8782C70.4438 86.613 70.9022 87.1455 70.9022 87.8025C70.9022 88.4595 70.4438 88.992 69.8782 88.992Z" fill="#DFE6F4"/>
<path d="M82.728 127.259H80.023V126.561H82.1269V124.815H82.728V127.259ZM77.6186 127.259H75.2141V126.561H77.6186V127.259ZM72.8097 127.259H70.4052V126.561H72.8097V127.259ZM68.0008 127.259H65.5963V126.561H68.0008V127.259ZM63.1919 127.259H60.7875V126.561H63.1919V127.259ZM58.383 127.259H55.9786V126.561H58.383V127.259ZM53.5741 127.259H51.1697V126.561H53.5741V127.259ZM48.7652 127.259H46.9619V125.863H47.563V126.561H48.7652V127.259ZM47.563 123.069H46.9619V120.276H47.563V123.069ZM82.728 122.022H82.1269V119.229H82.728V122.022ZM47.563 117.483H46.9619V114.69H47.563V117.483ZM82.728 116.436H82.1269V113.643H82.728V116.436ZM47.563 111.897H46.9619V109.104H47.563V111.897ZM82.728 110.85H82.1269V108.057H82.728V110.85ZM47.563 106.311H46.9619V103.518H47.563V106.311ZM82.728 105.264H82.1269V102.471H82.728V105.264ZM80.023 102.82H77.6186V102.121H80.023V102.82ZM75.2141 102.82H72.8097V102.121H75.2141V102.82ZM70.4052 102.82H68.0008V102.121H70.4052V102.82ZM65.5963 102.82H63.1919V102.121H65.5963V102.82ZM60.7875 102.82H58.383V102.121H60.7875V102.82ZM55.9786 102.82H53.5741V102.121H55.9786V102.82ZM51.1697 102.82H48.7652V102.121H51.1697V102.82Z" fill="#353535"/>
<path d="M115.283 114.312H92.6833C92.1651 114.312 91.7446 113.824 91.7446 113.221C91.7446 112.619 92.1651 112.131 92.6833 112.131H115.283C115.802 112.131 116.222 112.619 116.222 113.221C116.222 113.824 115.802 114.312 115.283 114.312Z" fill="#DFE6F4"/>
<path d="M115.283 109.015H92.6833C92.1651 109.015 91.7446 108.527 91.7446 107.925C91.7446 107.323 92.1651 106.835 92.6833 106.835H115.283C115.802 106.835 116.222 107.323 116.222 107.925C116.222 108.527 115.802 109.015 115.283 109.015Z" fill="#DFE6F4"/>
<path d="M104.286 119.608H92.6835C92.165 119.608 91.7451 119.12 91.7451 118.517C91.7451 117.915 92.165 117.427 92.6835 117.427H104.286C104.804 117.427 105.224 117.915 105.224 118.517C105.224 119.12 104.804 119.608 104.286 119.608Z" fill="#DFE6F4"/>
<path d="M114.136 39.103H93.0968C92.105 39.103 91.2935 38.1603 91.2935 37.0082V20.5989C91.2935 19.4468 92.105 18.5042 93.0968 18.5042H114.136C115.127 18.5042 115.939 19.4468 115.939 20.5989V37.0082C115.939 38.1603 115.127 39.103 114.136 39.103Z" fill="#DFE6F4"/>
<path d="M113.835 64.2406H92.7965C91.8047 64.2406 90.9932 63.2979 90.9932 62.1458V45.7365C90.9932 44.5844 91.8047 43.6417 92.7965 43.6417H113.835C114.827 43.6417 115.639 44.5844 115.639 45.7365V62.1458C115.639 63.2979 114.827 64.2406 113.835 64.2406Z" fill="#AFD2ED"/>
<path d="M117.442 99.1041H91.5943V79.9513H117.442V99.1041ZM117.442 79.2531H91.5943C91.2637 79.2531 90.9932 79.5673 90.9932 79.9513V99.1041C90.9932 99.4885 91.2637 99.8023 91.5943 99.8023H117.442C117.773 99.8023 118.043 99.4885 118.043 99.1041V79.9513C118.043 79.5673 117.773 79.2531 117.442 79.2531Z" fill="#C8D5EC"/>
<path d="M93.7314 96.8843C93.7314 94.004 94.6331 90.6872 95.9105 90.6872C97.1686 90.6872 97.263 91.9965 98.6906 91.9965C99.7194 91.9965 102.673 85.7885 103.95 85.7885C105.377 85.7885 107.294 89.4338 108.308 89.5281C109.653 89.6527 111.26 82.6732 112.93 82.6732C114.244 82.6732 115.597 87.9692 115.597 90.2508V96.8843H93.7314Z" fill="#C8D5EC"/>
<path d="M99.2914 85.2631C99.2914 86.7574 98.2488 87.9688 96.9621 87.9688C95.676 87.9688 94.6328 86.7574 94.6328 85.2631C94.6328 83.7691 95.676 82.558 96.9621 82.558C98.2488 82.558 99.2914 83.7691 99.2914 85.2631Z" fill="#C8D5EC"/>
<path d="M31.5565 128.907C33.8416 130.887 44.119 123.757 44.119 123.757C44.119 123.757 48.9748 124.564 49.6255 125.003C50.2761 125.441 47.1455 121.992 46.0753 120.628C45.4445 119.825 47.3114 119.088 47.2639 118.532C47.2165 117.976 43.1987 119.42 43.0834 120.374C43.0038 121.033 34.539 125.412 34.0309 125.028L31.5565 128.907Z" fill="#F4BC9C"/>
<path d="M79.78 127.131L48.2225 126.87C47.2264 126.862 46.4246 125.918 46.4319 124.761L46.5562 104.512C46.5632 103.355 47.3763 102.423 48.3721 102.432L79.9296 102.693C80.9258 102.701 81.7269 103.645 81.72 104.802L81.5963 125.052C81.589 126.209 80.7759 127.14 79.78 127.131Z" fill="white"/>
<path d="M79.78 127.131L48.2225 126.87C47.2264 126.862 46.4246 125.918 46.4319 124.761L46.5562 104.512C46.5632 103.355 47.3763 102.423 48.3721 102.432L79.9296 102.693C80.9258 102.701 81.7269 103.645 81.72 104.802L81.5963 125.052C81.589 126.209 80.7759 127.14 79.78 127.131Z" stroke="#C6DFFD" stroke-width="2" stroke-miterlimit="10"/>
<path d="M59.332 114.748C59.346 117.64 57.3389 119.998 54.8492 120.014C52.3594 120.03 50.3295 117.699 50.3154 114.807C50.3011 111.915 52.3081 109.557 54.7982 109.54C57.2879 109.524 59.3176 111.855 59.332 114.748Z" fill="#AFD2ED"/>
<path d="M77.0376 113.715L62.9369 113.808C62.4184 113.811 61.9958 113.326 61.9931 112.724C61.99 112.122 62.4078 111.631 62.9263 111.627L77.027 111.534C77.5452 111.531 77.968 112.016 77.9709 112.619C77.9739 113.221 77.5561 113.712 77.0376 113.715Z" fill="#DFE6F4"/>
<path d="M69.8831 118.768L62.9614 118.814C62.4432 118.817 62.0204 118.332 62.0173 117.73C62.0145 117.128 62.4324 116.637 62.9509 116.633L69.8726 116.587C70.3908 116.584 70.8136 117.07 70.8164 117.672C70.8194 118.274 70.4016 118.765 69.8831 118.768Z" fill="#DFE6F4"/>
<path d="M35.3115 101.764C35.3115 101.764 36.9822 105.755 34.0307 111.207C33.8014 111.63 31.0528 110.488 31.0528 110.488C31.0528 110.488 31.0339 112.268 31.1778 113.415C31.2317 113.844 31.3631 115.001 31.2079 115.368C30.6276 116.74 23.864 115.879 25.4727 113.303C26.8529 111.093 27.2758 109.185 27.2758 109.185C27.2758 109.185 29.3063 96.5904 35.3115 101.764Z" fill="#F4BC9C"/>
<path d="M22.6313 195.274L22.1351 198.544C22.0729 198.953 22.2586 199.334 22.5499 199.394L31.9529 201.32L32.0153 200.908C32.0649 200.581 31.9229 200.256 31.6656 200.112C30.5875 199.508 27.7892 197.825 26.557 195.986C24.5365 192.973 22.6313 195.274 22.6313 195.274Z" fill="#353535"/>
<path d="M8.57174 192.395L8.0755 195.664C8.01329 196.074 8.19908 196.454 8.49033 196.514L16.4134 198.137L16.4758 197.725C16.5254 197.398 16.3834 197.073 16.1261 196.929C15.0479 196.325 13.7296 194.945 12.4974 193.107C10.477 190.093 8.57174 192.395 8.57174 192.395Z" fill="#353535"/>
<path d="M16.1353 137.379L8.57172 192.395L12.4974 193.106L25.1959 145.115L26.3217 133.008L16.1353 137.379Z" fill="white"/>
<path d="M20.2389 138.376L22.6293 195.286L26.643 196.108L32.2851 140.688L20.2389 138.376Z" fill="white"/>
<path d="M30.7529 113.125C30.7529 113.125 33.054 112.824 33.993 120.284C34.9319 127.744 32.3201 141.175 32.3201 141.175L16.0708 137.846C16.0708 137.846 18.3024 114.125 26.1361 112.474C26.1361 112.474 26.7669 113.752 28.1302 113.942C29.4936 114.133 30.7529 113.125 30.7529 113.125Z" fill="#FFFF00"/>
<path d="M37.186 98.1437C36.8266 99.4924 36.147 101.51 35.2599 101.745C35.2561 101.746 35.2541 101.747 35.2505 101.745C35.145 101.676 32.5235 100.002 30.2391 103.113C28.0324 106.118 27.6745 109.046 27.6745 109.046C27.5722 108.606 24.148 107.144 24.9443 101.899C25.1878 100.294 26.4822 100.171 26.6938 99.9234C26.9263 99.6505 26.9871 98.4537 27.2927 98.1554C29.163 96.3334 32.8296 97.8711 34.1427 96.929C35.1076 96.2364 37.664 96.3502 37.186 98.1437Z" fill="#353535"/>
<path d="M30.0966 103.803C30.0975 103.68 30.0435 103.568 29.9533 103.505C29.6406 103.287 28.8992 102.897 28.5272 103.779C28.1182 104.749 28.9874 105.782 29.7208 105.993C29.9054 106.046 30.0826 105.877 30.0841 105.657L30.0966 103.803Z" fill="#F4BC9C"/>
<path d="M34.6071 122.376L29.8258 123.956C29.8258 123.956 33.6891 133.683 35.1594 134.329C37.8252 135.5 45.7338 125.945 45.7338 125.945C45.7338 125.945 50.658 125.466 51.3875 125.679C52.1171 125.893 48.0227 123.771 46.6346 122.547C45.8888 121.889 47.6947 120.435 47.5171 119.916C47.3396 119.396 43.8202 122.071 43.9356 123.025C44.0153 123.683 37.3752 129.959 36.7958 129.753C36.0772 129.498 34.6071 122.376 34.6071 122.376Z" fill="#F4BC9C"/>
<path d="M30.0857 126.025C30.0857 126.025 26.6658 117.199 29.5713 116.182C32.4767 115.165 35.1358 123.499 35.1358 123.499C35.1358 123.499 32.0581 125.862 30.0857 126.025Z" fill="#A9DBFD"/>
<path d="M94.5249 27.8435C94.5249 27.8435 94.5249 28.098 94.5249 28.5163" stroke="#4A90E2" stroke-width="20" stroke-linecap="round" stroke-linejoin="round"/>
<path d="M198.3 17.1079V116.492L132.169 116.492C128.018 116.492 124.655 112.585 124.655 107.764V17.1079C124.655 15.9512 125.463 15.0131 126.459 15.0131H196.497C197.489 15.0131 198.3 15.9557 198.3 17.1079Z" fill="white"/>
<path d="M159.995 85.5062V116.474H132.933C136.864 116.198 139.984 112.403 139.984 107.764H140.02V85.5062C140.02 80.6878 143.383 76.7778 147.534 76.7778C151.685 76.7778 156.692 80.2053 156.692 85.0233L159.995 85.5062Z" fill="#B8C2DE"/>
<path d="M150.54 187.401C153.273 186.073 155.224 182.989 155.343 179.371H155.391C155.391 179.371 155.424 85.7401 155.424 85.5061C155.424 81.7373 153.417 78.4977 150.569 77.127H222.132C226.234 77.127 229.7 80.9643 229.7 85.5061V179.021C229.7 183.642 226.464 187.401 222.486 187.401H150.54Z" fill="white"/>
<path d="M222.132 77.4761C226.071 77.4761 229.399 81.1535 229.399 85.5062V179.021C229.399 183.449 226.298 187.052 222.486 187.052H151.781C153.939 185.505 155.43 182.819 155.627 179.72H155.69L155.691 179.022C155.699 155.843 155.724 85.8284 155.724 85.5062C155.724 82.1157 154.161 79.1373 151.82 77.4761H222.132ZM222.132 76.7778H147.534C151.726 76.7778 155.123 80.6881 155.123 85.5062C155.123 85.7401 155.099 154.743 155.09 179.021H155.048C155.048 183.843 151.684 187.75 147.534 187.75H222.486C226.637 187.75 230 183.843 230 179.021V85.5062C230 80.6881 226.321 76.7778 222.132 76.7778Z" fill="#B8C2DE"/>
<path d="M155.048 179.021C155.048 183.843 151.685 187.75 147.534 187.75C143.602 187.75 140.376 184.243 140.048 179.773C140.018 179.368 140.299 179.021 140.649 179.021H155.048Z" fill="#B8C2DE"/>
<path d="M189.933 21.1871C189.933 22.1706 189.25 22.9687 188.409 22.9687C187.567 22.9687 186.885 22.1706 186.885 21.1871C186.885 20.2035 187.567 19.4061 188.409 19.4061C189.25 19.4061 189.933 20.2035 189.933 21.1871Z" fill="#4094D0"/>
<path d="M185.575 21.1871C185.575 22.1706 184.893 22.9687 184.051 22.9687C183.209 22.9687 182.527 22.1706 182.527 21.1871C182.527 20.2035 183.209 19.4061 184.051 19.4061C184.893 19.4061 185.575 20.2035 185.575 21.1871Z" fill="#DFE6F4"/>
<path d="M194.291 21.1871C194.291 22.1706 193.608 22.9687 192.767 22.9687C191.925 22.9687 191.243 22.1706 191.243 21.1871C191.243 20.2035 191.925 19.4061 192.767 19.4061C193.608 19.4061 194.291 20.2035 194.291 21.1871Z" fill="#AFD2ED"/>
<path d="M171.842 23.9157H130.967C129.971 23.9157 129.164 22.9776 129.164 21.8209C129.164 20.6638 129.971 19.7261 130.967 19.7261H171.842C172.838 19.7261 173.646 20.6638 173.646 21.8209C173.646 22.9776 172.838 23.9157 171.842 23.9157Z" fill="#AFD2ED"/>
<path d="M193.629 32.9043H157.805C157.287 32.9043 156.867 32.4162 156.867 31.814C156.867 31.2117 157.287 30.7236 157.805 30.7236H193.629C194.148 30.7236 194.568 31.2117 194.568 31.814C194.568 32.4162 194.148 32.9043 193.629 32.9043Z" fill="#DFE6F4"/>
<path d="M191.759 38.2285H157.805C157.287 38.2285 156.866 37.7404 156.866 37.1382C156.866 36.5359 157.287 36.0479 157.805 36.0479H191.759C192.278 36.0479 192.698 36.5359 192.698 37.1382C192.698 37.7404 192.278 38.2285 191.759 38.2285Z" fill="#DFE6F4"/>
<path d="M193.629 43.5529H157.805C157.287 43.5529 156.867 43.0648 156.867 42.4625C156.867 41.8603 157.287 41.3722 157.805 41.3722H193.629C194.148 41.3722 194.568 41.8603 194.568 42.4625C194.568 43.0648 194.148 43.5529 193.629 43.5529Z" fill="#DFE6F4"/>
<path d="M186.16 48.8771H157.805C157.287 48.8771 156.866 48.389 156.866 47.7868C156.866 47.1845 157.287 46.6964 157.805 46.6964H186.16C186.679 46.6964 187.098 47.1845 187.098 47.7868C187.098 48.389 186.679 48.8771 186.16 48.8771Z" fill="#DFE6F4"/>
<path d="M193.629 54.2013H157.805C157.287 54.2013 156.867 53.7132 156.867 53.111C156.867 52.5087 157.287 52.0206 157.805 52.0206H193.629C194.148 52.0206 194.568 52.5087 194.568 53.111C194.568 53.7132 194.148 54.2013 193.629 54.2013Z" fill="#DFE6F4"/>
<path d="M193.629 59.5255H129.501C128.983 59.5255 128.562 59.0374 128.562 58.4352C128.562 57.8329 128.983 57.3448 129.501 57.3448H193.629C194.148 57.3448 194.568 57.8329 194.568 58.4352C194.568 59.0374 194.148 59.5255 193.629 59.5255Z" fill="#DFE6F4"/>
<path d="M193.629 64.8499H129.501C128.983 64.8499 128.562 64.3618 128.562 63.7595C128.562 63.1573 128.983 62.6692 129.501 62.6692H193.629C194.148 62.6692 194.568 63.1573 194.568 63.7595C194.568 64.3618 194.148 64.8499 193.629 64.8499Z" fill="#DFE6F4"/>
<path d="M184.232 70.1743H129.501C128.983 70.1743 128.562 69.6862 128.562 69.084C128.562 68.4817 128.983 67.9937 129.501 67.9937H184.232C184.75 67.9937 185.17 68.4817 185.17 69.084C185.17 69.6862 184.75 70.1743 184.232 70.1743Z" fill="#DFE6F4"/>
<path d="M222.984 87.8927H162.713C162.194 87.8927 161.774 87.4046 161.774 86.8024C161.774 86.2001 162.194 85.712 162.713 85.712H222.984C223.502 85.712 223.922 86.2001 223.922 86.8024C223.922 87.4046 223.502 87.8927 222.984 87.8927Z" fill="#DFE6F4"/>
<path d="M219.901 93.2169H162.713C162.194 93.2169 161.774 92.7289 161.774 92.1266C161.774 91.5243 162.194 91.0363 162.713 91.0363H219.901C220.42 91.0363 220.84 91.5243 220.84 92.1266C220.84 92.7289 220.42 93.2169 219.901 93.2169Z" fill="#DFE6F4"/>
<path d="M222.984 98.5412H162.713C162.194 98.5412 161.774 98.0531 161.774 97.4508C161.774 96.8486 162.194 96.3605 162.713 96.3605H222.984C223.502 96.3605 223.922 96.8486 223.922 97.4508C223.922 98.0531 223.502 98.5412 222.984 98.5412Z" fill="#DFE6F4"/>
<path d="M210.671 103.865H162.713C162.195 103.865 161.774 103.377 161.774 102.775C161.774 102.173 162.195 101.685 162.713 101.685H210.671C211.189 101.685 211.609 102.173 211.609 102.775C211.609 103.377 211.189 103.865 210.671 103.865Z" fill="#DFE6F4"/>
<path d="M222.984 109.19H162.713C162.194 109.19 161.774 108.702 161.774 108.099C161.774 107.497 162.194 107.009 162.713 107.009H222.984C223.502 107.009 223.922 107.497 223.922 108.099C223.922 108.702 223.502 109.19 222.984 109.19Z" fill="#DFE6F4"/>
<path d="M222.984 114.514H162.713C162.194 114.514 161.774 114.026 161.774 113.424C161.774 112.821 162.194 112.333 162.713 112.333H222.984C223.502 112.333 223.922 112.821 223.922 113.424C223.922 114.026 223.502 114.514 222.984 114.514Z" fill="#DFE6F4"/>
<path d="M172.249 119.838H162.713C162.194 119.838 161.774 119.35 161.774 118.748C161.774 118.146 162.194 117.658 162.713 117.658H172.249C172.768 117.658 173.188 118.146 173.188 118.748C173.188 119.35 172.768 119.838 172.249 119.838Z" fill="#DFE6F4"/>
<path d="M151.705 53.6777H130.667C129.675 53.6777 128.863 52.7351 128.863 51.5829V32.6439C128.863 31.4917 129.675 30.5491 130.667 30.5491H151.705C152.697 30.5491 153.509 31.4917 153.509 32.6439V51.5829C153.509 52.7351 152.697 53.6777 151.705 53.6777Z" fill="#DFE6F4"/>
<path d="M77.4771 189.921H67.4118C66.9628 189.921 66.5778 189.548 66.4972 189.035L63.8481 172.108H81.0405L78.3914 189.035C78.3112 189.548 77.9262 189.921 77.4771 189.921Z" fill="#9BC3F1"/>
<path d="M80.8084 172.649H64.5454C63.1397 172.649 61.9897 171.312 61.9897 169.68C61.9897 168.047 63.1397 166.711 64.5454 166.711H80.8084C82.2141 166.711 83.364 168.047 83.364 169.68C83.364 171.312 82.2141 172.649 80.8084 172.649Z" fill="#9BC3F1"/>
<path d="M63.9556 172.793L80.3383 176.599L80.9566 172.649H63.9331L63.9556 172.793Z" fill="#353535"/>
</svg>
