<svg width="29" height="29" viewBox="0 0 29 29" fill="none" xmlns="http://www.w3.org/2000/svg">
<path fill-rule="evenodd" clip-rule="evenodd" d="M14.5 3.625C10.2037 3.625 8.05556 6.65454 8.05556 10.3917V12.4861C8.05556 13.8208 6.85498 14.9233 5.89185 15.8473C5.27123 16.4427 4.83334 17.2872 4.83334 18.2861C4.83334 19.5318 5.79509 20.5417 6.98148 20.5417H22.0185C23.2049 20.5417 24.1667 19.5318 24.1667 18.2861C24.1667 17.2872 23.7288 16.4427 23.1082 15.8473C22.145 14.9233 20.9444 13.8208 20.9444 12.4861V10.3917C20.9444 6.65454 18.7963 3.625 14.5 3.625Z" stroke="white" stroke-width="2"/>
<path d="M16.9167 24.1667C16.6711 24.533 16.3186 24.837 15.8944 25.0483C15.4703 25.2596 14.9895 25.3708 14.5 25.3708C14.0106 25.3708 13.5297 25.2596 13.1056 25.0483C12.6814 24.837 12.3289 24.533 12.0833 24.1667" stroke="white" stroke-width="2" stroke-linecap="round" stroke-linejoin="round"/>
</svg>
