<svg width="26" height="26" viewBox="0 0 26 26" fill="none" xmlns="http://www.w3.org/2000/svg">
<path fill-rule="evenodd" clip-rule="evenodd" d="M2.16667 8.66667C2.16667 5.67512 4.5918 3.25 7.58334 3.25H18.4167C21.4082 3.25 23.8333 5.67512 23.8333 8.66667V18.4167C23.8333 21.4082 21.4082 23.8333 18.4167 23.8333H7.58334C4.5918 23.8333 2.16667 21.4082 2.16667 18.4167V8.66667ZM7.58334 5.41667C5.78841 5.41667 4.33334 6.87174 4.33334 8.66667V18.4167C4.33334 20.2116 5.78841 21.6667 7.58334 21.6667H18.4167C20.2116 21.6667 21.6667 20.2116 21.6667 18.4167V8.66667C21.6667 6.87174 20.2116 5.41667 18.4167 5.41667H7.58334Z" fill="white"/>
<path fill-rule="evenodd" clip-rule="evenodd" d="M8.66666 2.16675C9.26497 2.16675 9.74999 2.65177 9.74999 3.25008V6.50008C9.74999 7.09839 9.26497 7.58342 8.66666 7.58342C8.06835 7.58342 7.58333 7.09839 7.58333 6.50008V3.25008C7.58333 2.65177 8.06835 2.16675 8.66666 2.16675Z" fill="white"/>
<path fill-rule="evenodd" clip-rule="evenodd" d="M6.5 10.8333C6.5 10.235 6.98502 9.75 7.58333 9.75H18.4167C19.015 9.75 19.5 10.235 19.5 10.8333C19.5 11.4316 19.015 11.9167 18.4167 11.9167H7.58333C6.98502 11.9167 6.5 11.4316 6.5 10.8333Z" fill="white"/>
<path fill-rule="evenodd" clip-rule="evenodd" d="M16.25 18.4166C16.25 17.8183 16.735 17.3333 17.3333 17.3333L18.4167 17.3333C19.015 17.3333 19.5 17.8183 19.5 18.4166C19.5 19.0149 19.015 19.4999 18.4167 19.4999H17.3333C16.735 19.4999 16.25 19.0149 16.25 18.4166Z" fill="white"/>
<path fill-rule="evenodd" clip-rule="evenodd" d="M17.3333 2.16675C17.9316 2.16675 18.4167 2.65177 18.4167 3.25008V6.50008C18.4167 7.09839 17.9316 7.58342 17.3333 7.58342C16.735 7.58342 16.25 7.09839 16.25 6.50008V3.25008C16.25 2.65177 16.735 2.16675 17.3333 2.16675Z" fill="white"/>
</svg>
