<svg width="19" height="13" viewBox="0 0 19 13" fill="none" xmlns="http://www.w3.org/2000/svg">
<path fill-rule="evenodd" clip-rule="evenodd" d="M18.0313 6.50008L18.5759 6.22708V6.22445L18.572 6.22052L18.5641 6.20477L18.5366 6.15227L18.4316 5.96327C18.3034 5.74225 18.1673 5.52598 18.0234 5.31489C17.5432 4.61001 16.9911 3.95683 16.3762 3.36583C14.8983 1.94833 12.6238 0.501953 9.5 0.501953C6.37888 0.501953 4.103 1.94702 2.62513 3.36583C2.01017 3.95683 1.45816 4.61001 0.977942 5.31489C0.783086 5.60239 0.602614 5.89938 0.437193 6.20477L0.429318 6.22052L0.426693 6.22445V6.22577C0.426693 6.22577 0.42538 6.22708 0.970068 6.50008L0.42538 6.22577C0.383268 6.31084 0.361359 6.40449 0.361359 6.49942C0.361359 6.59435 0.383268 6.688 0.42538 6.77308L0.424068 6.7757L0.428005 6.77964L0.43588 6.79539C0.476806 6.87739 0.520583 6.95794 0.56713 7.03689C1.13229 7.99162 1.82365 8.86575 2.6225 9.63564C4.10169 11.0531 6.37625 12.4969 9.5 12.4969C12.6224 12.4969 14.8983 11.0531 16.3775 9.63433C16.9913 9.04262 17.5428 8.38951 18.0234 7.68527C18.2074 7.4143 18.3787 7.13487 18.5366 6.84789L18.5641 6.79539L18.572 6.77964L18.5746 6.7757V6.77439C18.5746 6.77439 18.5759 6.77308 18.0313 6.50008ZM18.0313 6.50008L18.5759 6.77439C18.6181 6.68931 18.64 6.59566 18.64 6.50073C18.64 6.4058 18.6181 6.31216 18.5759 6.22708L18.0313 6.50008ZM9.42125 4.48408C8.88658 4.48408 8.3738 4.69648 7.99573 5.07455C7.61765 5.45262 7.40525 5.9654 7.40525 6.50008C7.40525 7.03475 7.61765 7.54753 7.99573 7.9256C8.3738 8.30368 8.88658 8.51608 9.42125 8.51608C9.95593 8.51608 10.4687 8.30368 10.8468 7.9256C11.2249 7.54753 11.4373 7.03475 11.4373 6.50008C11.4373 5.9654 11.2249 5.45262 10.8468 5.07455C10.4687 4.69648 9.95593 4.48408 9.42125 4.48408ZM6.18988 6.50008C6.18988 5.64237 6.5306 4.81979 7.1371 4.21329C7.74359 3.6068 8.56617 3.26608 9.42388 3.26608C10.2816 3.26608 11.1042 3.6068 11.7107 4.21329C12.3172 4.81979 12.6579 5.64237 12.6579 6.50008C12.6579 7.35779 12.3172 8.18037 11.7107 8.78686C11.1042 9.39335 10.2816 9.73408 9.42388 9.73408C8.56617 9.73408 7.74359 9.39335 7.1371 8.78686C6.5306 8.18037 6.18988 7.35779 6.18988 6.50008Z" fill="#D2B589"/>
</svg>
