<svg width="18" height="20" viewBox="0 0 18 20" fill="none" xmlns="http://www.w3.org/2000/svg">
<path d="M5.75001 2.41664C5.46269 2.41664 5.18714 2.53077 4.98398 2.73394C4.78081 2.9371 4.66668 3.21265 4.66668 3.49997C4.66668 3.78729 4.78081 4.06284 4.98398 4.266C5.18714 4.46917 5.46269 4.5833 5.75001 4.5833C6.03733 4.5833 6.31288 4.46917 6.51604 4.266C6.71921 4.06284 6.83334 3.78729 6.83334 3.49997C6.83334 3.21265 6.71921 2.9371 6.51604 2.73394C6.31288 2.53077 6.03733 2.41664 5.75001 2.41664ZM2.68418 2.41664C2.908 1.78231 3.32306 1.23302 3.87216 0.844491C4.42126 0.45596 5.07735 0.247314 5.75001 0.247314C6.42267 0.247314 7.07876 0.45596 7.62786 0.844491C8.17696 1.23302 8.59202 1.78231 8.81584 2.41664H16.5833C16.8707 2.41664 17.1462 2.53077 17.3494 2.73394C17.5525 2.9371 17.6667 3.21265 17.6667 3.49997C17.6667 3.78729 17.5525 4.06284 17.3494 4.266C17.1462 4.46917 16.8707 4.5833 16.5833 4.5833H8.81584C8.59202 5.21763 8.17696 5.76692 7.62786 6.15545C7.07876 6.54398 6.42267 6.75262 5.75001 6.75262C5.07735 6.75262 4.42126 6.54398 3.87216 6.15545C3.32306 5.76692 2.908 5.21763 2.68418 4.5833H1.41668C1.12936 4.5833 0.853809 4.46917 0.650645 4.266C0.44748 4.06284 0.333344 3.78729 0.333344 3.49997C0.333344 3.21265 0.44748 2.9371 0.650645 2.73394C0.853809 2.53077 1.12936 2.41664 1.41668 2.41664H2.68418ZM12.25 8.91664C11.9627 8.91664 11.6871 9.03077 11.484 9.23394C11.2808 9.4371 11.1667 9.71265 11.1667 9.99997C11.1667 10.2873 11.2808 10.5628 11.484 10.766C11.6871 10.9692 11.9627 11.0833 12.25 11.0833C12.5373 11.0833 12.8129 10.9692 13.016 10.766C13.2192 10.5628 13.3333 10.2873 13.3333 9.99997C13.3333 9.71265 13.2192 9.4371 13.016 9.23394C12.8129 9.03077 12.5373 8.91664 12.25 8.91664ZM9.18418 8.91664C9.408 8.28231 9.82306 7.73302 10.3722 7.34449C10.9213 6.95596 11.5774 6.74731 12.25 6.74731C12.9227 6.74731 13.5788 6.95596 14.1279 7.34449C14.677 7.73302 15.092 8.28231 15.3158 8.91664H16.5833C16.8707 8.91664 17.1462 9.03077 17.3494 9.23394C17.5525 9.4371 17.6667 9.71265 17.6667 9.99997C17.6667 10.2873 17.5525 10.5628 17.3494 10.766C17.1462 10.9692 16.8707 11.0833 16.5833 11.0833H15.3158C15.092 11.7176 14.677 12.2669 14.1279 12.6554C13.5788 13.044 12.9227 13.2526 12.25 13.2526C11.5774 13.2526 10.9213 13.044 10.3722 12.6554C9.82306 12.2669 9.408 11.7176 9.18418 11.0833H1.41668C1.12936 11.0833 0.853809 10.9692 0.650645 10.766C0.44748 10.5628 0.333344 10.2873 0.333344 9.99997C0.333344 9.71265 0.44748 9.4371 0.650645 9.23394C0.853809 9.03077 1.12936 8.91664 1.41668 8.91664H9.18418ZM5.75001 15.4166C5.46269 15.4166 5.18714 15.5308 4.98398 15.7339C4.78081 15.9371 4.66668 16.2127 4.66668 16.5C4.66668 16.7873 4.78081 17.0628 4.98398 17.266C5.18714 17.4692 5.46269 17.5833 5.75001 17.5833C6.03733 17.5833 6.31288 17.4692 6.51604 17.266C6.71921 17.0628 6.83334 16.7873 6.83334 16.5C6.83334 16.2127 6.71921 15.9371 6.51604 15.7339C6.31288 15.5308 6.03733 15.4166 5.75001 15.4166ZM2.68418 15.4166C2.908 14.7823 3.32306 14.233 3.87216 13.8445C4.42126 13.456 5.07735 13.2473 5.75001 13.2473C6.42267 13.2473 7.07876 13.456 7.62786 13.8445C8.17696 14.233 8.59202 14.7823 8.81584 15.4166H16.5833C16.8707 15.4166 17.1462 15.5308 17.3494 15.7339C17.5525 15.9371 17.6667 16.2127 17.6667 16.5C17.6667 16.7873 17.5525 17.0628 17.3494 17.266C17.1462 17.4692 16.8707 17.5833 16.5833 17.5833H8.81584C8.59202 18.2176 8.17696 18.7669 7.62786 19.1554C7.07876 19.544 6.42267 19.7526 5.75001 19.7526C5.07735 19.7526 4.42126 19.544 3.87216 19.1554C3.32306 18.7669 2.908 18.2176 2.68418 17.5833H1.41668C1.12936 17.5833 0.853809 17.4692 0.650645 17.266C0.44748 17.0628 0.333344 16.7873 0.333344 16.5C0.333344 16.2127 0.44748 15.9371 0.650645 15.7339C0.853809 15.5308 1.12936 15.4166 1.41668 15.4166H2.68418Z" fill="black"/>
</svg>
