<svg width="26" height="26" viewBox="0 0 26 26" fill="none" xmlns="http://www.w3.org/2000/svg">
<path fill-rule="evenodd" clip-rule="evenodd" d="M22.1856 8.20987L16.3507 3.38552C14.3853 1.76049 11.6147 1.76049 9.64928 3.38552L3.81438 8.20987C2.76314 9.07905 2.16667 10.3969 2.16667 11.7719V20.4468C2.16667 22.2538 3.5603 23.8334 5.41667 23.8334H7.58333C9.37826 23.8334 10.8333 22.3783 10.8333 20.5834V16.9919C10.8333 16.2549 11.3798 15.772 11.9167 15.772H14.0833C14.6202 15.772 15.1667 16.2549 15.1667 16.9919V20.5834C15.1667 22.3783 16.6217 23.8334 18.4167 23.8334H20.5833C22.4397 23.8334 23.8333 22.2538 23.8333 20.4468V11.7719C23.8333 10.3969 23.2369 9.07905 22.1856 8.20987Z" fill="white"/>
</svg>
