<svg width="27" height="24" viewBox="0 0 27 24" fill="none" xmlns="http://www.w3.org/2000/svg">
<mask id="mask0_29_2288" style="mask-type:luminance" maskUnits="userSpaceOnUse" x="0" y="0" width="24" height="24">
<path fill-rule="evenodd" clip-rule="evenodd" d="M0 0.000244141H23.9997V24H0V0.000244141Z" fill="white"/>
</mask>
<g mask="url(#mask0_29_2288)">
<path fill-rule="evenodd" clip-rule="evenodd" d="M23.9997 12.0002C23.9997 18.6292 18.6287 24.0002 11.9997 24.0002C5.3717 24.0002 -0.000301361 18.6292 -0.000301361 12.0002C-0.000301361 5.37124 5.3717 0.000244141 11.9997 0.000244141C18.6287 0.000244141 23.9997 5.37124 23.9997 12.0002Z" fill="#50B748"/>
</g>
<path fill-rule="evenodd" clip-rule="evenodd" d="M14.5231 23.7189C14.7531 23.6719 14.9841 23.6209 15.2101 23.5619C15.5981 23.4569 15.9771 23.3279 16.3481 23.1839C16.7231 23.0389 17.0861 22.8749 17.4411 22.6949C17.8011 22.5119 18.1481 22.3119 18.4841 22.0979C18.8201 21.8829 19.1451 21.6479 19.4601 21.3979C19.7731 21.1519 20.0741 20.8869 20.3591 20.6049C20.6481 20.3279 26.741 24.0239 27 23.7189C27.258 23.4149 22.3091 18.0859 22.5311 17.7539C22.3391 18.1049 22.7571 17.4259 22.5311 17.7539C22.7231 17.4019 22.8981 17.0429 23.0551 16.6759C23.2111 16.3049 23.3481 15.9299 23.4641 15.5469C23.5661 15.2109 23.6521 14.8749 23.7271 14.5309L16.5941 7.40187C15.3781 6.17987 13.7271 5.49587 12.0031 5.49587C10.2771 5.49187 8.6211 6.17987 7.4021 7.40187C6.1841 8.62087 5.4961 10.2729 5.4961 11.9999C5.4961 13.7229 6.1841 15.3789 7.4021 16.5979L14.5231 23.7149V23.7189Z" fill="#10A711"/>
<path fill-rule="evenodd" clip-rule="evenodd" d="M14.9606 10.0002C14.8666 10.0082 14.7766 10.0432 14.6986 10.1022L11.0466 12.8442L9.3556 11.1482C8.9876 10.7702 8.2666 11.4882 8.6486 11.8552L10.6486 13.8552C10.8236 14.0272 11.0986 14.0472 11.3016 13.9022L15.3016 10.9022C15.6376 10.6602 15.4306 10.0082 15.0126 10.0002H14.9606ZM11.9996 5.49622C13.6636 5.49622 15.3236 6.13322 16.5986 7.40222C17.8156 8.62122 18.5036 10.2732 18.5036 12.0002C18.5036 13.7272 17.8156 15.3792 16.5986 16.5982C15.3786 17.8162 13.7276 18.5042 11.9996 18.5042C10.2736 18.5042 8.6206 17.8162 7.4016 16.5982C6.1836 15.3792 5.4966 13.7272 5.4966 12.0002C5.4966 10.2732 6.1836 8.62122 7.4016 7.40222C8.6206 6.18022 10.2766 5.49622 11.9996 5.49622Z" fill="white"/>
</svg>
