<svg width="25" height="25" viewBox="0 0 25 25" fill="none" xmlns="http://www.w3.org/2000/svg">
<path fill-rule="evenodd" clip-rule="evenodd" d="M12.5 4.16659C10.7741 4.16659 9.37499 5.5657 9.37499 7.29159C9.37499 9.01748 10.7741 10.4166 12.5 10.4166C14.2259 10.4166 15.625 9.01748 15.625 7.29159C15.625 5.5657 14.2259 4.16659 12.5 4.16659ZM7.29166 7.29159C7.29166 4.4151 9.62351 2.08325 12.5 2.08325C15.3765 2.08325 17.7083 4.4151 17.7083 7.29159C17.7083 10.1681 15.3765 12.4999 12.5 12.4999C9.62351 12.4999 7.29166 10.1681 7.29166 7.29159Z" fill="white"/>
<path fill-rule="evenodd" clip-rule="evenodd" d="M12.5 15.6251C8.91412 15.6251 7.02909 16.8957 6.08869 18.4351C5.76142 18.9709 5.84373 19.4763 6.24329 19.9405C6.67914 20.447 7.46728 20.8334 8.33334 20.8334H16.6667C17.5327 20.8334 18.3209 20.447 18.7567 19.9405C19.1563 19.4763 19.2386 18.9709 18.9113 18.4351C17.9709 16.8957 16.0859 15.6251 12.5 15.6251ZM4.31083 17.3491C5.71635 15.0482 8.37171 13.5417 12.5 13.5417C16.6283 13.5417 19.2837 15.0482 20.6892 17.3491C21.5615 18.7771 21.2276 20.2632 20.3358 21.2995C19.4803 22.2936 18.1018 22.9167 16.6667 22.9167H8.33334C6.89821 22.9167 5.51976 22.2936 4.66422 21.2995C3.77237 20.2632 3.43849 18.7771 4.31083 17.3491Z" fill="white"/>
</svg>
